<?xml version="1.0" encoding="UTF-8"?>
<!DOCTYPE svg PUBLIC "-//W3C//DTD SVG 1.1//EN" "http://www.w3.org/Graphics/SVG/1.1/DTD/svg11.dtd">
<!-- Creator: CorelDRAW -->
<svg xmlns="http://www.w3.org/2000/svg" xml:space="preserve" width="7.83333in" height="7.83333in" style="shape-rendering:geometricPrecision; text-rendering:geometricPrecision; image-rendering:optimizeQuality; fill-rule:evenodd; clip-rule:evenodd"
viewBox="0 0 7.83333 7.83333"
 xmlns:xlink="http://www.w3.org/1999/xlink">
 <defs>
  <style type="text/css">
   <![CDATA[
    .fil10 {fill:#BBC8D1}
    .fil8 {fill:#D3A96B}
    .fil7 {fill:#D3A99C}
    .fil9 {fill:#D3CB83}
    .fil5 {fill:#E3F2FD}
    .fil6 {fill:whitesmoke}
    .fil3 {fill:#FFCC80}
    .fil4 {fill:#FFCCBC}
    .fil0 {fill:#FFDB78}
    .fil2 {fill:#FFF59D}
    .fil1 {fill:#413B32;fill-rule:nonzero}
   ]]>
  </style>
 </defs>
 <g id="Layer_x0020_1">
  <metadata id="CorelCorpID_0Corel-Layer"/>
  <circle class="fil0" cx="3.91667" cy="3.91667" r="3.91667"/>
  <g id="_348345304">
   <path id="_348346480" class="fil1" d="M1.43667 1.82687l4.96 0c0.0441811,0 0.08,0.0358189 0.08,0.08l0 3.4953c0,0.0441811 -0.0358189,0.08 -0.08,0.08l-4.96 0c-0.0441811,0 -0.08,-0.0358189 -0.08,-0.08l0 -3.4953c0,-0.0441811 0.0358189,-0.08 0.08,-0.08zm4.88 0.16l-4.8 0 0 3.3353 4.8 0 0 -3.3353z"/>
   <path id="_348347152" class="fil1" d="M3.45063 5.32217l0.932079 0c0.0441811,0 0.08,0.0358189 0.08,0.08l0 0.524291c0,0.0441811 -0.0358189,0.08 -0.08,0.08l-0.932079 0c-0.0441811,0 -0.08,-0.0358189 -0.08,-0.08l0 -0.524291c0,-0.0441811 0.0358189,-0.08 0.08,-0.08zm0.852079 0.16l-0.772079 0 0 0.364291 0.772079 0 0 -0.364291z"/>
   <path id="_348346744" class="fil1" d="M2.67863 5.84646c-0.0441811,0 -0.08,0.0358189 -0.08,0.08 0,0.0441811 0.0358189,0.08 0.08,0.08l2.47607 0c0.0441811,0 0.08,-0.0358189 0.08,-0.08 0,-0.0441811 -0.0358189,-0.08 -0.08,-0.08l-2.47607 0z"/>
   <g>
    <path id="_348346552" class="fil1" d="M4.77731 2.60435l0.898075 0c0.0441811,0 0.08,0.0358189 0.08,0.08l0 2.71294c0,0.0441811 -0.0358189,0.08 -0.08,0.08l-0.898075 0c-0.0441811,0 -0.08,-0.0358189 -0.08,-0.08l0 -2.71294c0,-0.0441811 0.0358189,-0.08 0.08,-0.08zm0.818075 0.16l-0.738075 0 0 2.55294 0.738075 0 0 -2.55294z"/>
    <path id="_348346696" class="fil1" d="M3.46763 3.28492l0.898079 0c0.0441811,0 0.08,0.0358189 0.08,0.08l0 2.03237c0,0.0441811 -0.0358189,0.08 -0.08,0.08l-0.898079 0c-0.0441811,0 -0.08,-0.0358189 -0.08,-0.08l0 -2.03237c0,-0.0441811 0.0358189,-0.08 0.08,-0.08zm0.818079 0.16l-0.738079 0 0 1.87237 0.738079 0 0 -1.87237z"/>
    <path id="_348346504" class="fil1" d="M2.15794 3.96081l0.898075 0c0.0441811,0 0.08,0.0358189 0.08,0.08l0 1.35647c0,0.0441811 -0.0358189,0.08 -0.08,0.08l-0.898075 0c-0.0441811,0 -0.08,-0.0358189 -0.08,-0.08l0 -1.35647c0,-0.0441811 0.0358189,-0.08 0.08,-0.08zm0.818075 0.16l-0.738075 0 0 1.19647 0.738075 0 0 -1.19647z"/>
   </g>
   <polygon id="_348346336" class="fil2" points="4.85731,2.76435 4.85731,5.31728 5.59539,5.31728 5.59539,2.76435 "/>
   <polygon id="_348345736" class="fil3" points="4.2857,5.31728 4.2857,3.44492 3.54763,3.44492 3.54763,5.31728 "/>
   <polygon id="_348346312" class="fil4" points="2.97602,5.31728 2.97602,4.12081 2.23794,4.12081 2.23794,5.31728 "/>
   <path id="_348345976" class="fil5" d="M2.15794 3.96081l0.898075 0c0.0441811,0 0.08,0.0358189 0.08,0.08l0 1.28135 0.25161 0 0 -1.95725c0,-0.0441811 0.0358189,-0.08 0.08,-0.08l0.898079 0c0.0441811,0 0.08,0.0358189 0.08,0.08l0 1.95725 0.25161 0 0 -2.63782c0,-0.0441811 0.0358189,-0.08 0.08,-0.08l0.898075 0c0.0441811,0 0.08,0.0358189 0.08,0.08l0 2.63782 0.561276 0 0 -3.3353 -4.8 0 0 3.3353 0.561276 0 0 -1.28135c0,-0.0441811 0.0358189,-0.08 0.08,-0.08z"/>
   <polygon id="_348345808" class="fil6" points="4.3027,5.48217 3.53063,5.48217 3.53063,5.84646 4.3027,5.84646 "/>
   <polygon id="_348345784" class="fil7" points="2.60805,4.12081 2.60805,5.31728 2.97602,5.31728 2.97602,4.12081 "/>
   <polygon id="_348345952" class="fil8" points="3.91774,3.44492 3.91774,5.31728 4.2857,5.31728 4.2857,3.44492 "/>
   <polygon id="_348345376" class="fil9" points="5.22743,2.76435 5.22743,5.31728 5.59539,5.31728 5.59539,2.76435 "/>
   <rect id="_348345040" class="fil10" x="6.06535" y="1.98687" width="0.251311" height="3.3353"/>
  </g>
 </g>
</svg>
